<?xml version="1.0" encoding="UTF-8" standalone="no"?>
<!DOCTYPE svg PUBLIC "-//W3C//DTD SVG 1.1//EN"
 "http://www.w3.org/Graphics/SVG/1.1/DTD/svg11.dtd">
<!-- Generated by graphviz version 12.1.1 (0)
 -->
<!-- Pages: 1 -->
<svg width="576pt" height="201pt"
 viewBox="0.00 0.00 576.00 200.77" xmlns="http://www.w3.org/2000/svg" xmlns:xlink="http://www.w3.org/1999/xlink">
<g id="graph0" class="graph" transform="scale(0.661466 0.661466) rotate(0) translate(4 299.53)">
<polygon fill="white" stroke="none" points="-4,4 -4,-299.53 866.79,-299.53 866.79,4 -4,4"/>
<!-- x_{t&#45;1} -->
<g id="node1" class="node">
<title>x_{t&#45;1}</title>
<ellipse fill="lightblue" stroke="black" cx="70.8" cy="-215.59" rx="70.8" ry="70.8"/>
<text text-anchor="middle" x="70.8" y="-210.54" font-family="Times,serif" font-size="14.00">Input $x_{t&#45;1}$</text>
</g>
<!-- h_{t&#45;1} -->
<g id="node2" class="node">
<title>h_{t&#45;1}</title>
<ellipse fill="lightgreen" stroke="black" cx="316.83" cy="-215.59" rx="78.48" ry="78.48"/>
<text text-anchor="middle" x="316.83" y="-210.54" font-family="Times,serif" font-size="14.00">Hidden $h_{t&#45;1}$</text>
</g>
<!-- x_{t&#45;1}&#45;&gt;h_{t&#45;1} -->
<g id="edge1" class="edge">
<title>x_{t&#45;1}&#45;&gt;h_{t&#45;1}</title>
<path fill="none" stroke="black" d="M142.06,-215.59C168.41,-215.59 198.73,-215.59 226.58,-215.59"/>
<polygon fill="black" stroke="black" points="226.43,-219.09 236.43,-215.59 226.43,-212.09 226.43,-219.09"/>
<text text-anchor="middle" x="189.98" y="-218.79" font-family="Times,serif" font-size="14.00">$W_{xh}$</text>
</g>
<!-- y_{t&#45;1} -->
<g id="node3" class="node">
<title>y_{t&#45;1}</title>
<ellipse fill="lightcoral" stroke="black" cx="569" cy="-218.59" rx="76.94" ry="76.94"/>
<text text-anchor="middle" x="569" y="-213.54" font-family="Times,serif" font-size="14.00">Output $y_{t&#45;1}$</text>
</g>
<!-- h_{t&#45;1}&#45;&gt;y_{t&#45;1} -->
<g id="edge2" class="edge">
<title>h_{t&#45;1}&#45;&gt;y_{t&#45;1}</title>
<path fill="none" stroke="black" d="M395.61,-216.52C422.59,-216.84 453.01,-217.21 480.7,-217.54"/>
<polygon fill="black" stroke="black" points="480.42,-221.04 490.46,-217.66 480.51,-214.04 480.42,-221.04"/>
<text text-anchor="middle" x="443.68" y="-220.64" font-family="Times,serif" font-size="14.00">$W_{hy}$</text>
</g>
<!-- h_t -->
<g id="node5" class="node">
<title>h_t</title>
<ellipse fill="lightgreen" stroke="black" cx="569" cy="-61.59" rx="61.59" ry="61.59"/>
<text text-anchor="middle" x="569" y="-56.54" font-family="Times,serif" font-size="14.00">Hidden $h_t$</text>
</g>
<!-- h_{t&#45;1}&#45;&gt;h_t -->
<g id="edge3" class="edge">
<title>h_{t&#45;1}&#45;&gt;h_t</title>
<path fill="none" stroke="black" stroke-dasharray="5,2" d="M384.21,-174.72C422.08,-151.41 469.24,-122.38 506.3,-99.57"/>
<polygon fill="black" stroke="black" points="508.01,-102.62 514.69,-94.4 504.34,-96.66 508.01,-102.62"/>
<text text-anchor="middle" x="443.68" y="-155.58" font-family="Times,serif" font-size="14.00">$W_{hh}$</text>
</g>
<!-- x_t -->
<g id="node4" class="node">
<title>x_t</title>
<ellipse fill="lightblue" stroke="black" cx="316.83" cy="-61.59" rx="53.91" ry="53.91"/>
<text text-anchor="middle" x="316.83" y="-56.54" font-family="Times,serif" font-size="14.00">Input $x_t$</text>
</g>
<!-- x_t&#45;&gt;h_t -->
<g id="edge4" class="edge">
<title>x_t&#45;&gt;h_t</title>
<path fill="none" stroke="black" d="M371.19,-61.59C407.5,-61.59 455.98,-61.59 495.74,-61.59"/>
<polygon fill="black" stroke="black" points="495.73,-65.09 505.73,-61.59 495.73,-58.09 495.73,-65.09"/>
<text text-anchor="middle" x="443.68" y="-64.79" font-family="Times,serif" font-size="14.00">$W_{xh}$</text>
</g>
<!-- y_t -->
<g id="node6" class="node">
<title>y_t</title>
<ellipse fill="lightcoral" stroke="black" cx="802.74" cy="-61.59" rx="60.05" ry="60.05"/>
<text text-anchor="middle" x="802.74" y="-56.54" font-family="Times,serif" font-size="14.00">Output $y_t$</text>
</g>
<!-- h_t&#45;&gt;y_t -->
<g id="edge5" class="edge">
<title>h_t&#45;&gt;y_t</title>
<path fill="none" stroke="black" d="M630.88,-61.59C661.58,-61.59 698.98,-61.59 730.95,-61.59"/>
<polygon fill="black" stroke="black" points="730.95,-65.09 740.95,-61.59 730.95,-58.09 730.95,-65.09"/>
<text text-anchor="middle" x="694.31" y="-64.79" font-family="Times,serif" font-size="14.00">$W_{hy}$</text>
</g>
</g>
</svg>
