<?xml version="1.0" encoding="UTF-8" standalone="no"?>
<!DOCTYPE svg PUBLIC "-//W3C//DTD SVG 1.1//EN"
 "http://www.w3.org/Graphics/SVG/1.1/DTD/svg11.dtd">
<!-- Generated by graphviz version 12.1.0 (0)
 -->
<!-- Pages: 1 -->
<svg width="1088pt" height="1060pt"
 viewBox="0.00 0.00 1088.00 1059.75" xmlns="http://www.w3.org/2000/svg" xmlns:xlink="http://www.w3.org/1999/xlink">
<g id="graph0" class="graph" transform="scale(1 1) rotate(0) translate(4 1055.75)">
<polygon fill="white" stroke="none" points="-4,4 -4,-1055.75 1084,-1055.75 1084,4 -4,4"/>
<!-- 140230012852880 -->
<g id="node1" class="node">
<title>140230012852880</title>
<polygon fill="#caff70" stroke="black" points="583,-34.25 525,-34.25 525,0 583,0 583,-34.25"/>
<text text-anchor="middle" x="554" y="-8.75" font-family="monospace" font-size="10.00"> (1, 1)</text>
</g>
<!-- 140230013689216 -->
<g id="node2" class="node">
<title>140230013689216</title>
<polygon fill="lightgrey" stroke="black" points="610,-92.5 498,-92.5 498,-70.25 610,-70.25 610,-92.5"/>
<text text-anchor="middle" x="554" y="-79" font-family="monospace" font-size="10.00">SigmoidBackward0</text>
</g>
<!-- 140230013689216&#45;&gt;140230012852880 -->
<g id="edge66" class="edge">
<title>140230013689216&#45;&gt;140230012852880</title>
<path fill="none" stroke="black" d="M554,-69.82C554,-63.14 554,-54.17 554,-45.59"/>
<polygon fill="black" stroke="black" points="557.5,-45.88 554,-35.88 550.5,-45.88 557.5,-45.88"/>
</g>
<!-- 140230013691040 -->
<g id="node3" class="node">
<title>140230013691040</title>
<polygon fill="lightgrey" stroke="black" points="604,-150.75 504,-150.75 504,-128.5 604,-128.5 604,-150.75"/>
<text text-anchor="middle" x="554" y="-137.25" font-family="monospace" font-size="10.00">AddmmBackward0</text>
</g>
<!-- 140230013691040&#45;&gt;140230013689216 -->
<g id="edge1" class="edge">
<title>140230013691040&#45;&gt;140230013689216</title>
<path fill="none" stroke="black" d="M554,-128.04C554,-121.37 554,-112.49 554,-104.34"/>
<polygon fill="black" stroke="black" points="557.5,-104.42 554,-94.42 550.5,-104.42 557.5,-104.42"/>
</g>
<!-- 140230010410880 -->
<g id="node4" class="node">
<title>140230010410880</title>
<polygon fill="lightgrey" stroke="black" points="489,-209 389,-209 389,-186.75 489,-186.75 489,-209"/>
<text text-anchor="middle" x="439" y="-195.5" font-family="monospace" font-size="10.00">AccumulateGrad</text>
</g>
<!-- 140230010410880&#45;&gt;140230013691040 -->
<g id="edge2" class="edge">
<title>140230010410880&#45;&gt;140230013691040</title>
<path fill="none" stroke="black" d="M460.63,-186.29C477.98,-177.81 502.58,-165.78 522.17,-156.19"/>
<polygon fill="black" stroke="black" points="523.66,-159.36 531.11,-151.82 520.59,-153.07 523.66,-159.36"/>
</g>
<!-- 140230012848320 -->
<g id="node5" class="node">
<title>140230012848320</title>
<polygon fill="lightblue" stroke="black" points="471,-281.5 407,-281.5 407,-245 471,-245 471,-281.5"/>
<text text-anchor="middle" x="439" y="-268" font-family="monospace" font-size="10.00">fc2.bias</text>
<text text-anchor="middle" x="439" y="-253.75" font-family="monospace" font-size="10.00"> (1)</text>
</g>
<!-- 140230012848320&#45;&gt;140230010410880 -->
<g id="edge3" class="edge">
<title>140230012848320&#45;&gt;140230010410880</title>
<path fill="none" stroke="black" d="M439,-244.6C439,-237.28 439,-228.72 439,-220.99"/>
<polygon fill="black" stroke="black" points="442.5,-221.01 439,-211.01 435.5,-221.01 442.5,-221.01"/>
</g>
<!-- 140230010410832 -->
<g id="node6" class="node">
<title>140230010410832</title>
<polygon fill="lightgrey" stroke="black" points="601,-209 507,-209 507,-186.75 601,-186.75 601,-209"/>
<text text-anchor="middle" x="554" y="-195.5" font-family="monospace" font-size="10.00">ReluBackward0</text>
</g>
<!-- 140230010410832&#45;&gt;140230013691040 -->
<g id="edge4" class="edge">
<title>140230010410832&#45;&gt;140230013691040</title>
<path fill="none" stroke="black" d="M554,-186.29C554,-179.62 554,-170.74 554,-162.59"/>
<polygon fill="black" stroke="black" points="557.5,-162.67 554,-152.67 550.5,-162.67 557.5,-162.67"/>
</g>
<!-- 140230010412032 -->
<g id="node7" class="node">
<title>140230010412032</title>
<polygon fill="lightgrey" stroke="black" points="596,-274.38 496,-274.38 496,-252.12 596,-252.12 596,-274.38"/>
<text text-anchor="middle" x="546" y="-260.88" font-family="monospace" font-size="10.00">AddmmBackward0</text>
</g>
<!-- 140230010412032&#45;&gt;140230010410832 -->
<g id="edge5" class="edge">
<title>140230010412032&#45;&gt;140230010410832</title>
<path fill="none" stroke="black" d="M547.32,-251.78C548.39,-243.29 549.94,-231.04 551.27,-220.47"/>
<polygon fill="black" stroke="black" points="554.73,-221.01 552.51,-210.65 547.79,-220.13 554.73,-221.01"/>
</g>
<!-- 140230010410976 -->
<g id="node8" class="node">
<title>140230010410976</title>
<polygon fill="lightgrey" stroke="black" points="417,-346.88 317,-346.88 317,-324.62 417,-324.62 417,-346.88"/>
<text text-anchor="middle" x="367" y="-333.38" font-family="monospace" font-size="10.00">AccumulateGrad</text>
</g>
<!-- 140230010410976&#45;&gt;140230010412032 -->
<g id="edge6" class="edge">
<title>140230010410976&#45;&gt;140230010412032</title>
<path fill="none" stroke="black" d="M393.8,-324.2C424.34,-312.17 474.45,-292.43 508.77,-278.91"/>
<polygon fill="black" stroke="black" points="509.88,-282.24 517.9,-275.32 507.32,-275.72 509.88,-282.24"/>
</g>
<!-- 140230012858320 -->
<g id="node9" class="node">
<title>140230012858320</title>
<polygon fill="lightblue" stroke="black" points="294,-426.5 230,-426.5 230,-390 294,-390 294,-426.5"/>
<text text-anchor="middle" x="262" y="-413" font-family="monospace" font-size="10.00">fc1.bias</text>
<text text-anchor="middle" x="262" y="-398.75" font-family="monospace" font-size="10.00"> (10)</text>
</g>
<!-- 140230012858320&#45;&gt;140230010410976 -->
<g id="edge7" class="edge">
<title>140230012858320&#45;&gt;140230010410976</title>
<path fill="none" stroke="black" d="M288.23,-389.64C304.62,-378.63 325.63,-364.53 341.83,-353.65"/>
<polygon fill="black" stroke="black" points="343.6,-356.68 349.95,-348.2 339.7,-350.87 343.6,-356.68"/>
</g>
<!-- 140230010411024 -->
<g id="node10" class="node">
<title>140230010411024</title>
<polygon fill="lightgrey" stroke="black" points="571,-346.88 483,-346.88 483,-324.62 571,-324.62 571,-346.88"/>
<text text-anchor="middle" x="527" y="-333.38" font-family="monospace" font-size="10.00">CatBackward0</text>
</g>
<!-- 140230010411024&#45;&gt;140230010412032 -->
<g id="edge8" class="edge">
<title>140230010411024&#45;&gt;140230010412032</title>
<path fill="none" stroke="black" d="M529.8,-324.35C532.55,-314.14 536.83,-298.28 540.29,-285.42"/>
<polygon fill="black" stroke="black" points="543.57,-286.72 542.79,-276.16 536.81,-284.9 543.57,-286.72"/>
</g>
<!-- 140230010410352 -->
<g id="node11" class="node">
<title>140230010410352</title>
<polygon fill="lightgrey" stroke="black" points="406,-419.38 312,-419.38 312,-397.12 406,-397.12 406,-419.38"/>
<text text-anchor="middle" x="359" y="-405.88" font-family="monospace" font-size="10.00">ViewBackward0</text>
</g>
<!-- 140230010410352&#45;&gt;140230010411024 -->
<g id="edge9" class="edge">
<title>140230010410352&#45;&gt;140230010411024</title>
<path fill="none" stroke="black" d="M384.15,-396.7C412.69,-384.72 459.44,-365.1 491.64,-351.59"/>
<polygon fill="black" stroke="black" points="492.69,-354.94 500.56,-347.85 489.98,-348.49 492.69,-354.94"/>
</g>
<!-- 140230010411120 -->
<g id="node12" class="node">
<title>140230010411120</title>
<polygon fill="lightgrey" stroke="black" points="312,-491.88 164,-491.88 164,-469.62 312,-469.62 312,-491.88"/>
<text text-anchor="middle" x="238" y="-478.38" font-family="monospace" font-size="10.00">NativeDropoutBackward0</text>
</g>
<!-- 140230010411120&#45;&gt;140230010410352 -->
<g id="edge10" class="edge">
<title>140230010411120&#45;&gt;140230010410352</title>
<path fill="none" stroke="black" d="M256.11,-469.2C276.01,-457.6 308.2,-438.85 331.27,-425.41"/>
<polygon fill="black" stroke="black" points="332.97,-428.47 339.85,-420.41 329.45,-422.42 332.97,-428.47"/>
</g>
<!-- 140230010412944 -->
<g id="node13" class="node">
<title>140230010412944</title>
<polygon fill="lightgrey" stroke="black" points="273,-557.25 161,-557.25 161,-535 273,-535 273,-557.25"/>
<text text-anchor="middle" x="217" y="-543.75" font-family="monospace" font-size="10.00">SqueezeBackward1</text>
</g>
<!-- 140230010412944&#45;&gt;140230010411120 -->
<g id="edge11" class="edge">
<title>140230010412944&#45;&gt;140230010411120</title>
<path fill="none" stroke="black" d="M220.47,-534.66C223.34,-525.98 227.52,-513.38 231.07,-502.65"/>
<polygon fill="black" stroke="black" points="234.3,-504.05 234.12,-493.46 227.65,-501.85 234.3,-504.05"/>
</g>
<!-- 140230010412896 -->
<g id="node14" class="node">
<title>140230010412896</title>
<polygon fill="lightgrey" stroke="black" points="296,-615.5 106,-615.5 106,-593.25 296,-593.25 296,-615.5"/>
<text text-anchor="middle" x="201" y="-602" font-family="monospace" font-size="10.00">MaxPool2DWithIndicesBackward0</text>
</g>
<!-- 140230010412896&#45;&gt;140230010412944 -->
<g id="edge12" class="edge">
<title>140230010412896&#45;&gt;140230010412944</title>
<path fill="none" stroke="black" d="M204.01,-592.79C205.95,-585.96 208.55,-576.82 210.92,-568.52"/>
<polygon fill="black" stroke="black" points="214.22,-569.69 213.59,-559.11 207.49,-567.77 214.22,-569.69"/>
</g>
<!-- 140230010412368 -->
<g id="node15" class="node">
<title>140230010412368</title>
<polygon fill="lightgrey" stroke="black" points="256,-673.75 132,-673.75 132,-651.5 256,-651.5 256,-673.75"/>
<text text-anchor="middle" x="194" y="-660.25" font-family="monospace" font-size="10.00">UnsqueezeBackward0</text>
</g>
<!-- 140230010412368&#45;&gt;140230010412896 -->
<g id="edge13" class="edge">
<title>140230010412368&#45;&gt;140230010412896</title>
<path fill="none" stroke="black" d="M195.32,-651.04C196.16,-644.29 197.28,-635.28 198.3,-627.05"/>
<polygon fill="black" stroke="black" points="201.74,-627.77 199.5,-617.41 194.79,-626.9 201.74,-627.77"/>
</g>
<!-- 140230010412176 -->
<g id="node16" class="node">
<title>140230010412176</title>
<polygon fill="lightgrey" stroke="black" points="227,-732 133,-732 133,-709.75 227,-709.75 227,-732"/>
<text text-anchor="middle" x="180" y="-718.5" font-family="monospace" font-size="10.00">ReluBackward0</text>
</g>
<!-- 140230010412176&#45;&gt;140230010412368 -->
<g id="edge14" class="edge">
<title>140230010412176&#45;&gt;140230010412368</title>
<path fill="none" stroke="black" d="M182.63,-709.29C184.31,-702.54 186.56,-693.53 188.6,-685.3"/>
<polygon fill="black" stroke="black" points="191.99,-686.18 191.01,-675.63 185.2,-684.49 191.99,-686.18"/>
</g>
<!-- 140230010411168 -->
<g id="node17" class="node">
<title>140230010411168</title>
<polygon fill="lightgrey" stroke="black" points="244,-790.25 108,-790.25 108,-768 244,-768 244,-790.25"/>
<text text-anchor="middle" x="176" y="-776.75" font-family="monospace" font-size="10.00">ConvolutionBackward0</text>
</g>
<!-- 140230010411168&#45;&gt;140230010412176 -->
<g id="edge15" class="edge">
<title>140230010411168&#45;&gt;140230010412176</title>
<path fill="none" stroke="black" d="M176.75,-767.54C177.23,-760.87 177.86,-751.99 178.44,-743.84"/>
<polygon fill="black" stroke="black" points="181.93,-744.14 179.14,-733.92 174.94,-743.64 181.93,-744.14"/>
</g>
<!-- 140230010410448 -->
<g id="node18" class="node">
<title>140230010410448</title>
<polygon fill="lightgrey" stroke="black" points="590,-848.5 478,-848.5 478,-826.25 590,-826.25 590,-848.5"/>
<text text-anchor="middle" x="534" y="-835" font-family="monospace" font-size="10.00">PermuteBackward0</text>
</g>
<!-- 140230010410448&#45;&gt;140230010411168 -->
<g id="edge16" class="edge">
<title>140230010410448&#45;&gt;140230010411168</title>
<path fill="none" stroke="black" d="M477.67,-827.52C417.61,-818.09 322.04,-803.07 254.59,-792.47"/>
<polygon fill="black" stroke="black" points="255.52,-789.08 245.1,-790.98 254.43,-795.99 255.52,-789.08"/>
</g>
<!-- 140230010413568 -->
<g id="node32" class="node">
<title>140230010413568</title>
<polygon fill="lightgrey" stroke="black" points="476,-790.25 340,-790.25 340,-768 476,-768 476,-790.25"/>
<text text-anchor="middle" x="408" y="-776.75" font-family="monospace" font-size="10.00">ConvolutionBackward0</text>
</g>
<!-- 140230010410448&#45;&gt;140230010413568 -->
<g id="edge31" class="edge">
<title>140230010410448&#45;&gt;140230010413568</title>
<path fill="none" stroke="black" d="M510.3,-825.79C491.03,-817.19 463.59,-804.94 441.98,-795.29"/>
<polygon fill="black" stroke="black" points="443.53,-792.16 432.98,-791.27 440.68,-798.55 443.53,-792.16"/>
</g>
<!-- 140230010410016 -->
<g id="node43" class="node">
<title>140230010410016</title>
<polygon fill="lightgrey" stroke="black" points="725,-790.25 589,-790.25 589,-768 725,-768 725,-790.25"/>
<text text-anchor="middle" x="657" y="-776.75" font-family="monospace" font-size="10.00">ConvolutionBackward0</text>
</g>
<!-- 140230010410448&#45;&gt;140230010410016 -->
<g id="edge43" class="edge">
<title>140230010410448&#45;&gt;140230010410016</title>
<path fill="none" stroke="black" d="M557.14,-825.79C575.86,-817.23 602.49,-805.05 623.54,-795.43"/>
<polygon fill="black" stroke="black" points="624.95,-798.63 632.59,-791.29 622.04,-792.26 624.95,-798.63"/>
</g>
<!-- 140230010414768 -->
<g id="node54" class="node">
<title>140230010414768</title>
<polygon fill="lightgrey" stroke="black" points="960,-790.25 824,-790.25 824,-768 960,-768 960,-790.25"/>
<text text-anchor="middle" x="892" y="-776.75" font-family="monospace" font-size="10.00">ConvolutionBackward0</text>
</g>
<!-- 140230010410448&#45;&gt;140230010414768 -->
<g id="edge55" class="edge">
<title>140230010410448&#45;&gt;140230010414768</title>
<path fill="none" stroke="black" d="M590.33,-827.52C650.39,-818.09 745.96,-803.07 813.41,-792.47"/>
<polygon fill="black" stroke="black" points="813.57,-795.99 822.9,-790.98 812.48,-789.08 813.57,-795.99"/>
</g>
<!-- 140230010413904 -->
<g id="node19" class="node">
<title>140230010413904</title>
<polygon fill="lightgrey" stroke="black" points="596,-913.88 472,-913.88 472,-891.62 596,-891.62 596,-913.88"/>
<text text-anchor="middle" x="534" y="-900.38" font-family="monospace" font-size="10.00">EmbeddingBackward0</text>
</g>
<!-- 140230010413904&#45;&gt;140230010410448 -->
<g id="edge17" class="edge">
<title>140230010413904&#45;&gt;140230010410448</title>
<path fill="none" stroke="black" d="M534,-891.28C534,-882.79 534,-870.54 534,-859.97"/>
<polygon fill="black" stroke="black" points="537.5,-860.16 534,-850.16 530.5,-860.16 537.5,-860.16"/>
</g>
<!-- 140230010411360 -->
<g id="node20" class="node">
<title>140230010411360</title>
<polygon fill="lightgrey" stroke="black" points="584,-979.25 484,-979.25 484,-957 584,-957 584,-979.25"/>
<text text-anchor="middle" x="534" y="-965.75" font-family="monospace" font-size="10.00">AccumulateGrad</text>
</g>
<!-- 140230010411360&#45;&gt;140230010413904 -->
<g id="edge18" class="edge">
<title>140230010411360&#45;&gt;140230010413904</title>
<path fill="none" stroke="black" d="M534,-956.66C534,-948.17 534,-935.92 534,-925.34"/>
<polygon fill="black" stroke="black" points="537.5,-925.53 534,-915.53 530.5,-925.53 537.5,-925.53"/>
</g>
<!-- 140230012921056 -->
<g id="node21" class="node">
<title>140230012921056</title>
<polygon fill="lightblue" stroke="black" points="590,-1051.75 478,-1051.75 478,-1015.25 590,-1015.25 590,-1051.75"/>
<text text-anchor="middle" x="534" y="-1038.25" font-family="monospace" font-size="10.00">embedding.weight</text>
<text text-anchor="middle" x="534" y="-1024" font-family="monospace" font-size="10.00"> (44914, 100)</text>
</g>
<!-- 140230012921056&#45;&gt;140230010411360 -->
<g id="edge19" class="edge">
<title>140230012921056&#45;&gt;140230010411360</title>
<path fill="none" stroke="black" d="M534,-1014.85C534,-1007.53 534,-998.97 534,-991.24"/>
<polygon fill="black" stroke="black" points="537.5,-991.26 534,-981.26 530.5,-991.26 537.5,-991.26"/>
</g>
<!-- 140230010413952 -->
<g id="node22" class="node">
<title>140230010413952</title>
<polygon fill="lightgrey" stroke="black" points="104,-848.5 4,-848.5 4,-826.25 104,-826.25 104,-848.5"/>
<text text-anchor="middle" x="54" y="-835" font-family="monospace" font-size="10.00">AccumulateGrad</text>
</g>
<!-- 140230010413952&#45;&gt;140230010411168 -->
<g id="edge20" class="edge">
<title>140230010413952&#45;&gt;140230010411168</title>
<path fill="none" stroke="black" d="M76.95,-825.79C95.52,-817.23 121.93,-805.05 142.81,-795.43"/>
<polygon fill="black" stroke="black" points="144.17,-798.66 151.78,-791.29 141.23,-792.3 144.17,-798.66"/>
</g>
<!-- 140230012918256 -->
<g id="node23" class="node">
<title>140230012918256</title>
<polygon fill="lightblue" stroke="black" points="106,-921 0,-921 0,-884.5 106,-884.5 106,-921"/>
<text text-anchor="middle" x="53" y="-907.5" font-family="monospace" font-size="10.00">conv1d_4.weight</text>
<text text-anchor="middle" x="53" y="-893.25" font-family="monospace" font-size="10.00"> (32, 100, 4)</text>
</g>
<!-- 140230012918256&#45;&gt;140230010413952 -->
<g id="edge21" class="edge">
<title>140230012918256&#45;&gt;140230010413952</title>
<path fill="none" stroke="black" d="M53.28,-884.1C53.39,-876.78 53.53,-868.22 53.65,-860.49"/>
<polygon fill="black" stroke="black" points="57.15,-860.56 53.81,-850.51 50.15,-860.45 57.15,-860.56"/>
</g>
<!-- 140230010410400 -->
<g id="node24" class="node">
<title>140230010410400</title>
<polygon fill="lightgrey" stroke="black" points="222,-848.5 122,-848.5 122,-826.25 222,-826.25 222,-848.5"/>
<text text-anchor="middle" x="172" y="-835" font-family="monospace" font-size="10.00">AccumulateGrad</text>
</g>
<!-- 140230010410400&#45;&gt;140230010411168 -->
<g id="edge22" class="edge">
<title>140230010410400&#45;&gt;140230010411168</title>
<path fill="none" stroke="black" d="M172.75,-825.79C173.23,-819.12 173.86,-810.24 174.44,-802.09"/>
<polygon fill="black" stroke="black" points="177.93,-802.39 175.14,-792.17 170.94,-801.89 177.93,-802.39"/>
</g>
<!-- 140230012920016 -->
<g id="node25" class="node">
<title>140230012920016</title>
<polygon fill="lightblue" stroke="black" points="218,-921 124,-921 124,-884.5 218,-884.5 218,-921"/>
<text text-anchor="middle" x="171" y="-907.5" font-family="monospace" font-size="10.00">conv1d_4.bias</text>
<text text-anchor="middle" x="171" y="-893.25" font-family="monospace" font-size="10.00"> (32)</text>
</g>
<!-- 140230012920016&#45;&gt;140230010410400 -->
<g id="edge23" class="edge">
<title>140230012920016&#45;&gt;140230010410400</title>
<path fill="none" stroke="black" d="M171.28,-884.1C171.39,-876.78 171.53,-868.22 171.65,-860.49"/>
<polygon fill="black" stroke="black" points="175.15,-860.56 171.81,-850.51 168.15,-860.45 175.15,-860.56"/>
</g>
<!-- 140230010410688 -->
<g id="node26" class="node">
<title>140230010410688</title>
<polygon fill="lightgrey" stroke="black" points="518,-419.38 424,-419.38 424,-397.12 518,-397.12 518,-419.38"/>
<text text-anchor="middle" x="471" y="-405.88" font-family="monospace" font-size="10.00">ViewBackward0</text>
</g>
<!-- 140230010410688&#45;&gt;140230010411024 -->
<g id="edge24" class="edge">
<title>140230010410688&#45;&gt;140230010411024</title>
<path fill="none" stroke="black" d="M479.26,-396.85C487.78,-386.12 501.26,-369.15 511.73,-355.98"/>
<polygon fill="black" stroke="black" points="514.28,-358.39 517.76,-348.38 508.8,-354.03 514.28,-358.39"/>
</g>
<!-- 140230010413184 -->
<g id="node27" class="node">
<title>140230010413184</title>
<polygon fill="lightgrey" stroke="black" points="488,-491.88 340,-491.88 340,-469.62 488,-469.62 488,-491.88"/>
<text text-anchor="middle" x="414" y="-478.38" font-family="monospace" font-size="10.00">NativeDropoutBackward0</text>
</g>
<!-- 140230010413184&#45;&gt;140230010410688 -->
<g id="edge25" class="edge">
<title>140230010413184&#45;&gt;140230010410688</title>
<path fill="none" stroke="black" d="M422.41,-469.35C431.08,-458.62 444.8,-441.65 455.46,-428.48"/>
<polygon fill="black" stroke="black" points="458.04,-430.85 461.6,-420.87 452.59,-426.45 458.04,-430.85"/>
</g>
<!-- 140230010413520 -->
<g id="node28" class="node">
<title>140230010413520</title>
<polygon fill="lightgrey" stroke="black" points="469,-557.25 357,-557.25 357,-535 469,-535 469,-557.25"/>
<text text-anchor="middle" x="413" y="-543.75" font-family="monospace" font-size="10.00">SqueezeBackward1</text>
</g>
<!-- 140230010413520&#45;&gt;140230010413184 -->
<g id="edge26" class="edge">
<title>140230010413520&#45;&gt;140230010413184</title>
<path fill="none" stroke="black" d="M413.17,-534.66C413.3,-526.17 413.49,-513.92 413.66,-503.34"/>
<polygon fill="black" stroke="black" points="417.16,-503.59 413.81,-493.53 410.16,-503.48 417.16,-503.59"/>
</g>
<!-- 140230010411984 -->
<g id="node29" class="node">
<title>140230010411984</title>
<polygon fill="lightgrey" stroke="black" points="507,-615.5 317,-615.5 317,-593.25 507,-593.25 507,-615.5"/>
<text text-anchor="middle" x="412" y="-602" font-family="monospace" font-size="10.00">MaxPool2DWithIndicesBackward0</text>
</g>
<!-- 140230010411984&#45;&gt;140230010413520 -->
<g id="edge27" class="edge">
<title>140230010411984&#45;&gt;140230010413520</title>
<path fill="none" stroke="black" d="M412.19,-592.79C412.31,-586.12 412.46,-577.24 412.61,-569.09"/>
<polygon fill="black" stroke="black" points="416.11,-569.23 412.79,-559.17 409.11,-569.11 416.11,-569.23"/>
</g>
<!-- 140230010412320 -->
<g id="node30" class="node">
<title>140230010412320</title>
<polygon fill="lightgrey" stroke="black" points="474,-673.75 350,-673.75 350,-651.5 474,-651.5 474,-673.75"/>
<text text-anchor="middle" x="412" y="-660.25" font-family="monospace" font-size="10.00">UnsqueezeBackward0</text>
</g>
<!-- 140230010412320&#45;&gt;140230010411984 -->
<g id="edge28" class="edge">
<title>140230010412320&#45;&gt;140230010411984</title>
<path fill="none" stroke="black" d="M412,-651.04C412,-644.37 412,-635.49 412,-627.34"/>
<polygon fill="black" stroke="black" points="415.5,-627.42 412,-617.42 408.5,-627.42 415.5,-627.42"/>
</g>
<!-- 140230010413712 -->
<g id="node31" class="node">
<title>140230010413712</title>
<polygon fill="lightgrey" stroke="black" points="456,-732 362,-732 362,-709.75 456,-709.75 456,-732"/>
<text text-anchor="middle" x="409" y="-718.5" font-family="monospace" font-size="10.00">ReluBackward0</text>
</g>
<!-- 140230010413712&#45;&gt;140230010412320 -->
<g id="edge29" class="edge">
<title>140230010413712&#45;&gt;140230010412320</title>
<path fill="none" stroke="black" d="M409.56,-709.29C409.92,-702.62 410.39,-693.74 410.83,-685.59"/>
<polygon fill="black" stroke="black" points="414.32,-685.84 411.36,-675.67 407.33,-685.47 414.32,-685.84"/>
</g>
<!-- 140230010413568&#45;&gt;140230010413712 -->
<g id="edge30" class="edge">
<title>140230010413568&#45;&gt;140230010413712</title>
<path fill="none" stroke="black" d="M408.19,-767.54C408.31,-760.87 408.46,-751.99 408.61,-743.84"/>
<polygon fill="black" stroke="black" points="412.11,-743.98 408.79,-733.92 405.11,-743.86 412.11,-743.98"/>
</g>
<!-- 140230010413376 -->
<g id="node33" class="node">
<title>140230010413376</title>
<polygon fill="lightgrey" stroke="black" points="458,-848.5 358,-848.5 358,-826.25 458,-826.25 458,-848.5"/>
<text text-anchor="middle" x="408" y="-835" font-family="monospace" font-size="10.00">AccumulateGrad</text>
</g>
<!-- 140230010413376&#45;&gt;140230010413568 -->
<g id="edge32" class="edge">
<title>140230010413376&#45;&gt;140230010413568</title>
<path fill="none" stroke="black" d="M408,-825.79C408,-819.12 408,-810.24 408,-802.09"/>
<polygon fill="black" stroke="black" points="411.5,-802.17 408,-792.17 404.5,-802.17 411.5,-802.17"/>
</g>
<!-- 140230012919216 -->
<g id="node34" class="node">
<title>140230012919216</title>
<polygon fill="lightblue" stroke="black" points="454,-921 348,-921 348,-884.5 454,-884.5 454,-921"/>
<text text-anchor="middle" x="401" y="-907.5" font-family="monospace" font-size="10.00">conv1d_6.weight</text>
<text text-anchor="middle" x="401" y="-893.25" font-family="monospace" font-size="10.00"> (32, 100, 6)</text>
</g>
<!-- 140230012919216&#45;&gt;140230010413376 -->
<g id="edge33" class="edge">
<title>140230012919216&#45;&gt;140230010413376</title>
<path fill="none" stroke="black" d="M402.95,-884.1C403.77,-876.69 404.73,-868.01 405.59,-860.21"/>
<polygon fill="black" stroke="black" points="409.04,-860.82 406.66,-850.5 402.08,-860.05 409.04,-860.82"/>
</g>
<!-- 140230010413856 -->
<g id="node35" class="node">
<title>140230010413856</title>
<polygon fill="lightgrey" stroke="black" points="340,-848.5 240,-848.5 240,-826.25 340,-826.25 340,-848.5"/>
<text text-anchor="middle" x="290" y="-835" font-family="monospace" font-size="10.00">AccumulateGrad</text>
</g>
<!-- 140230010413856&#45;&gt;140230010413568 -->
<g id="edge34" class="edge">
<title>140230010413856&#45;&gt;140230010413568</title>
<path fill="none" stroke="black" d="M312.19,-825.79C330.08,-817.27 355.47,-805.17 375.62,-795.56"/>
<polygon fill="black" stroke="black" points="377.02,-798.77 384.54,-791.31 374.01,-792.45 377.02,-798.77"/>
</g>
<!-- 140230012918496 -->
<g id="node36" class="node">
<title>140230012918496</title>
<polygon fill="lightblue" stroke="black" points="330,-921 236,-921 236,-884.5 330,-884.5 330,-921"/>
<text text-anchor="middle" x="283" y="-907.5" font-family="monospace" font-size="10.00">conv1d_6.bias</text>
<text text-anchor="middle" x="283" y="-893.25" font-family="monospace" font-size="10.00"> (32)</text>
</g>
<!-- 140230012918496&#45;&gt;140230010413856 -->
<g id="edge35" class="edge">
<title>140230012918496&#45;&gt;140230010413856</title>
<path fill="none" stroke="black" d="M284.95,-884.1C285.77,-876.69 286.73,-868.01 287.59,-860.21"/>
<polygon fill="black" stroke="black" points="291.04,-860.82 288.66,-850.5 284.08,-860.05 291.04,-860.82"/>
</g>
<!-- 140230010411648 -->
<g id="node37" class="node">
<title>140230010411648</title>
<polygon fill="lightgrey" stroke="black" points="630,-419.38 536,-419.38 536,-397.12 630,-397.12 630,-419.38"/>
<text text-anchor="middle" x="583" y="-405.88" font-family="monospace" font-size="10.00">ViewBackward0</text>
</g>
<!-- 140230010411648&#45;&gt;140230010411024 -->
<g id="edge36" class="edge">
<title>140230010411648&#45;&gt;140230010411024</title>
<path fill="none" stroke="black" d="M574.74,-396.85C566.22,-386.12 552.74,-369.15 542.27,-355.98"/>
<polygon fill="black" stroke="black" points="545.2,-354.03 536.24,-348.38 539.72,-358.39 545.2,-354.03"/>
</g>
<!-- 140230010413136 -->
<g id="node38" class="node">
<title>140230010413136</title>
<polygon fill="lightgrey" stroke="black" points="657,-491.88 509,-491.88 509,-469.62 657,-469.62 657,-491.88"/>
<text text-anchor="middle" x="583" y="-478.38" font-family="monospace" font-size="10.00">NativeDropoutBackward0</text>
</g>
<!-- 140230010413136&#45;&gt;140230010411648 -->
<g id="edge37" class="edge">
<title>140230010413136&#45;&gt;140230010411648</title>
<path fill="none" stroke="black" d="M583,-469.35C583,-459.25 583,-443.61 583,-430.81"/>
<polygon fill="black" stroke="black" points="586.5,-431.21 583,-421.21 579.5,-431.21 586.5,-431.21"/>
</g>
<!-- 140230010414288 -->
<g id="node39" class="node">
<title>140230010414288</title>
<polygon fill="lightgrey" stroke="black" points="666,-557.25 554,-557.25 554,-535 666,-535 666,-557.25"/>
<text text-anchor="middle" x="610" y="-543.75" font-family="monospace" font-size="10.00">SqueezeBackward1</text>
</g>
<!-- 140230010414288&#45;&gt;140230010413136 -->
<g id="edge38" class="edge">
<title>140230010414288&#45;&gt;140230010413136</title>
<path fill="none" stroke="black" d="M605.54,-534.66C601.81,-525.89 596.36,-513.11 591.76,-502.31"/>
<polygon fill="black" stroke="black" points="595.11,-501.24 587.97,-493.41 588.67,-503.98 595.11,-501.24"/>
</g>
<!-- 140230010413616 -->
<g id="node40" class="node">
<title>140230010413616</title>
<polygon fill="lightgrey" stroke="black" points="736,-615.5 546,-615.5 546,-593.25 736,-593.25 736,-615.5"/>
<text text-anchor="middle" x="641" y="-602" font-family="monospace" font-size="10.00">MaxPool2DWithIndicesBackward0</text>
</g>
<!-- 140230010413616&#45;&gt;140230010414288 -->
<g id="edge39" class="edge">
<title>140230010413616&#45;&gt;140230010414288</title>
<path fill="none" stroke="black" d="M635.17,-592.79C631.27,-585.72 626.02,-576.19 621.32,-567.66"/>
<polygon fill="black" stroke="black" points="624.43,-566.05 616.54,-558.98 618.3,-569.43 624.43,-566.05"/>
</g>
<!-- 140230010413760 -->
<g id="node41" class="node">
<title>140230010413760</title>
<polygon fill="lightgrey" stroke="black" points="708,-673.75 584,-673.75 584,-651.5 708,-651.5 708,-673.75"/>
<text text-anchor="middle" x="646" y="-660.25" font-family="monospace" font-size="10.00">UnsqueezeBackward0</text>
</g>
<!-- 140230010413760&#45;&gt;140230010413616 -->
<g id="edge40" class="edge">
<title>140230010413760&#45;&gt;140230010413616</title>
<path fill="none" stroke="black" d="M645.06,-651.04C644.47,-644.37 643.68,-635.49 642.95,-627.34"/>
<polygon fill="black" stroke="black" points="646.44,-627.07 642.07,-617.42 639.47,-627.69 646.44,-627.07"/>
</g>
<!-- 140230010410064 -->
<g id="node42" class="node">
<title>140230010410064</title>
<polygon fill="lightgrey" stroke="black" points="694,-732 600,-732 600,-709.75 694,-709.75 694,-732"/>
<text text-anchor="middle" x="647" y="-718.5" font-family="monospace" font-size="10.00">ReluBackward0</text>
</g>
<!-- 140230010410064&#45;&gt;140230010413760 -->
<g id="edge41" class="edge">
<title>140230010410064&#45;&gt;140230010413760</title>
<path fill="none" stroke="black" d="M646.81,-709.29C646.69,-702.62 646.54,-693.74 646.39,-685.59"/>
<polygon fill="black" stroke="black" points="649.89,-685.61 646.21,-675.67 642.89,-685.73 649.89,-685.61"/>
</g>
<!-- 140230010410016&#45;&gt;140230010410064 -->
<g id="edge42" class="edge">
<title>140230010410016&#45;&gt;140230010410064</title>
<path fill="none" stroke="black" d="M655.12,-767.54C653.92,-760.79 652.32,-751.78 650.85,-743.55"/>
<polygon fill="black" stroke="black" points="654.33,-743.13 649.14,-733.9 647.44,-744.36 654.33,-743.13"/>
</g>
<!-- 140230010414192 -->
<g id="node44" class="node">
<title>140230010414192</title>
<polygon fill="lightgrey" stroke="black" points="712,-848.5 612,-848.5 612,-826.25 712,-826.25 712,-848.5"/>
<text text-anchor="middle" x="662" y="-835" font-family="monospace" font-size="10.00">AccumulateGrad</text>
</g>
<!-- 140230010414192&#45;&gt;140230010410016 -->
<g id="edge44" class="edge">
<title>140230010414192&#45;&gt;140230010410016</title>
<path fill="none" stroke="black" d="M661.06,-825.79C660.47,-819.12 659.68,-810.24 658.95,-802.09"/>
<polygon fill="black" stroke="black" points="662.44,-801.82 658.07,-792.17 655.47,-802.44 662.44,-801.82"/>
</g>
<!-- 140230012922096 -->
<g id="node45" class="node">
<title>140230012922096</title>
<polygon fill="lightblue" stroke="black" points="720,-921 614,-921 614,-884.5 720,-884.5 720,-921"/>
<text text-anchor="middle" x="667" y="-907.5" font-family="monospace" font-size="10.00">conv1d_8.weight</text>
<text text-anchor="middle" x="667" y="-893.25" font-family="monospace" font-size="10.00"> (32, 100, 8)</text>
</g>
<!-- 140230012922096&#45;&gt;140230010414192 -->
<g id="edge45" class="edge">
<title>140230012922096&#45;&gt;140230010414192</title>
<path fill="none" stroke="black" d="M665.61,-884.1C665.02,-876.69 664.34,-868.01 663.72,-860.21"/>
<polygon fill="black" stroke="black" points="667.23,-860.2 662.96,-850.5 660.25,-860.75 667.23,-860.2"/>
</g>
<!-- 140230010411792 -->
<g id="node46" class="node">
<title>140230010411792</title>
<polygon fill="lightgrey" stroke="black" points="832,-848.5 732,-848.5 732,-826.25 832,-826.25 832,-848.5"/>
<text text-anchor="middle" x="782" y="-835" font-family="monospace" font-size="10.00">AccumulateGrad</text>
</g>
<!-- 140230010411792&#45;&gt;140230010410016 -->
<g id="edge46" class="edge">
<title>140230010411792&#45;&gt;140230010410016</title>
<path fill="none" stroke="black" d="M758.49,-825.79C739.37,-817.19 712.15,-804.94 690.71,-795.29"/>
<polygon fill="black" stroke="black" points="692.34,-792.19 681.79,-791.28 689.47,-798.57 692.34,-792.19"/>
</g>
<!-- 140230012926496 -->
<g id="node47" class="node">
<title>140230012926496</title>
<polygon fill="lightblue" stroke="black" points="832,-921 738,-921 738,-884.5 832,-884.5 832,-921"/>
<text text-anchor="middle" x="785" y="-907.5" font-family="monospace" font-size="10.00">conv1d_8.bias</text>
<text text-anchor="middle" x="785" y="-893.25" font-family="monospace" font-size="10.00"> (32)</text>
</g>
<!-- 140230012926496&#45;&gt;140230010411792 -->
<g id="edge47" class="edge">
<title>140230012926496&#45;&gt;140230010411792</title>
<path fill="none" stroke="black" d="M784.16,-884.1C783.82,-876.78 783.41,-868.22 783.05,-860.49"/>
<polygon fill="black" stroke="black" points="786.54,-860.33 782.57,-850.51 779.55,-860.66 786.54,-860.33"/>
</g>
<!-- 140230010410784 -->
<g id="node48" class="node">
<title>140230010410784</title>
<polygon fill="lightgrey" stroke="black" points="760,-419.38 666,-419.38 666,-397.12 760,-397.12 760,-419.38"/>
<text text-anchor="middle" x="713" y="-405.88" font-family="monospace" font-size="10.00">ViewBackward0</text>
</g>
<!-- 140230010410784&#45;&gt;140230010411024 -->
<g id="edge48" class="edge">
<title>140230010410784&#45;&gt;140230010411024</title>
<path fill="none" stroke="black" d="M685.15,-396.7C653.28,-384.62 600.9,-364.76 565.23,-351.24"/>
<polygon fill="black" stroke="black" points="566.74,-348.07 556.15,-347.8 564.26,-354.61 566.74,-348.07"/>
</g>
<!-- 140230010414384 -->
<g id="node49" class="node">
<title>140230010414384</title>
<polygon fill="lightgrey" stroke="black" points="823,-491.88 675,-491.88 675,-469.62 823,-469.62 823,-491.88"/>
<text text-anchor="middle" x="749" y="-478.38" font-family="monospace" font-size="10.00">NativeDropoutBackward0</text>
</g>
<!-- 140230010414384&#45;&gt;140230010410784 -->
<g id="edge49" class="edge">
<title>140230010414384&#45;&gt;140230010410784</title>
<path fill="none" stroke="black" d="M743.69,-469.35C738.37,-458.93 730.05,-442.63 723.41,-429.64"/>
<polygon fill="black" stroke="black" points="726.69,-428.36 719.02,-421.04 720.45,-431.54 726.69,-428.36"/>
</g>
<!-- 140230010414096 -->
<g id="node50" class="node">
<title>140230010414096</title>
<polygon fill="lightgrey" stroke="black" points="814,-557.25 702,-557.25 702,-535 814,-535 814,-557.25"/>
<text text-anchor="middle" x="758" y="-543.75" font-family="monospace" font-size="10.00">SqueezeBackward1</text>
</g>
<!-- 140230010414096&#45;&gt;140230010414384 -->
<g id="edge50" class="edge">
<title>140230010414096&#45;&gt;140230010414384</title>
<path fill="none" stroke="black" d="M756.51,-534.66C755.31,-526.17 753.57,-513.92 752.07,-503.34"/>
<polygon fill="black" stroke="black" points="755.54,-502.93 750.67,-493.52 748.61,-503.91 755.54,-502.93"/>
</g>
<!-- 140230010412704 -->
<g id="node51" class="node">
<title>140230010412704</title>
<polygon fill="lightgrey" stroke="black" points="968,-615.5 778,-615.5 778,-593.25 968,-593.25 968,-615.5"/>
<text text-anchor="middle" x="873" y="-602" font-family="monospace" font-size="10.00">MaxPool2DWithIndicesBackward0</text>
</g>
<!-- 140230010412704&#45;&gt;140230010414096 -->
<g id="edge51" class="edge">
<title>140230010412704&#45;&gt;140230010414096</title>
<path fill="none" stroke="black" d="M851.37,-592.79C834.02,-584.31 809.42,-572.28 789.83,-562.69"/>
<polygon fill="black" stroke="black" points="791.41,-559.57 780.89,-558.32 788.34,-565.86 791.41,-559.57"/>
</g>
<!-- 140230010412848 -->
<g id="node52" class="node">
<title>140230010412848</title>
<polygon fill="lightgrey" stroke="black" points="941,-673.75 817,-673.75 817,-651.5 941,-651.5 941,-673.75"/>
<text text-anchor="middle" x="879" y="-660.25" font-family="monospace" font-size="10.00">UnsqueezeBackward0</text>
</g>
<!-- 140230010412848&#45;&gt;140230010412704 -->
<g id="edge52" class="edge">
<title>140230010412848&#45;&gt;140230010412704</title>
<path fill="none" stroke="black" d="M877.87,-651.04C877.16,-644.37 876.21,-635.49 875.34,-627.34"/>
<polygon fill="black" stroke="black" points="878.83,-626.99 874.28,-617.41 871.86,-627.73 878.83,-626.99"/>
</g>
<!-- 140230010414240 -->
<g id="node53" class="node">
<title>140230010414240</title>
<polygon fill="lightgrey" stroke="black" points="927,-732 833,-732 833,-709.75 927,-709.75 927,-732"/>
<text text-anchor="middle" x="880" y="-718.5" font-family="monospace" font-size="10.00">ReluBackward0</text>
</g>
<!-- 140230010414240&#45;&gt;140230010412848 -->
<g id="edge53" class="edge">
<title>140230010414240&#45;&gt;140230010412848</title>
<path fill="none" stroke="black" d="M879.81,-709.29C879.69,-702.62 879.54,-693.74 879.39,-685.59"/>
<polygon fill="black" stroke="black" points="882.89,-685.61 879.21,-675.67 875.89,-685.73 882.89,-685.61"/>
</g>
<!-- 140230010414768&#45;&gt;140230010414240 -->
<g id="edge54" class="edge">
<title>140230010414768&#45;&gt;140230010414240</title>
<path fill="none" stroke="black" d="M889.74,-767.54C888.3,-760.79 886.38,-751.78 884.62,-743.55"/>
<polygon fill="black" stroke="black" points="888.07,-742.94 882.56,-733.89 881.23,-744.4 888.07,-742.94"/>
</g>
<!-- 140230010410208 -->
<g id="node55" class="node">
<title>140230010410208</title>
<polygon fill="lightgrey" stroke="black" points="953,-848.5 853,-848.5 853,-826.25 953,-826.25 953,-848.5"/>
<text text-anchor="middle" x="903" y="-835" font-family="monospace" font-size="10.00">AccumulateGrad</text>
</g>
<!-- 140230010410208&#45;&gt;140230010414768 -->
<g id="edge56" class="edge">
<title>140230010410208&#45;&gt;140230010414768</title>
<path fill="none" stroke="black" d="M900.93,-825.79C899.61,-819.04 897.85,-810.03 896.24,-801.8"/>
<polygon fill="black" stroke="black" points="899.7,-801.29 894.35,-792.14 892.83,-802.63 899.7,-801.29"/>
</g>
<!-- 140230012925856 -->
<g id="node56" class="node">
<title>140230012925856</title>
<polygon fill="lightblue" stroke="black" points="962,-921 850,-921 850,-884.5 962,-884.5 962,-921"/>
<text text-anchor="middle" x="906" y="-907.5" font-family="monospace" font-size="10.00">conv1d_10.weight</text>
<text text-anchor="middle" x="906" y="-893.25" font-family="monospace" font-size="10.00"> (32, 100, 10)</text>
</g>
<!-- 140230012925856&#45;&gt;140230010410208 -->
<g id="edge57" class="edge">
<title>140230012925856&#45;&gt;140230010410208</title>
<path fill="none" stroke="black" d="M905.16,-884.1C904.82,-876.78 904.41,-868.22 904.05,-860.49"/>
<polygon fill="black" stroke="black" points="907.54,-860.33 903.57,-850.51 900.55,-860.66 907.54,-860.33"/>
</g>
<!-- 140230010414720 -->
<g id="node57" class="node">
<title>140230010414720</title>
<polygon fill="lightgrey" stroke="black" points="1075,-848.5 975,-848.5 975,-826.25 1075,-826.25 1075,-848.5"/>
<text text-anchor="middle" x="1025" y="-835" font-family="monospace" font-size="10.00">AccumulateGrad</text>
</g>
<!-- 140230010414720&#45;&gt;140230010414768 -->
<g id="edge58" class="edge">
<title>140230010414720&#45;&gt;140230010414768</title>
<path fill="none" stroke="black" d="M999.98,-825.79C979.46,-817.11 950.15,-804.72 927.24,-795.03"/>
<polygon fill="black" stroke="black" points="928.87,-791.92 918.3,-791.25 926.14,-798.37 928.87,-791.92"/>
</g>
<!-- 140230012857920 -->
<g id="node58" class="node">
<title>140230012857920</title>
<polygon fill="lightblue" stroke="black" points="1080,-921 980,-921 980,-884.5 1080,-884.5 1080,-921"/>
<text text-anchor="middle" x="1030" y="-907.5" font-family="monospace" font-size="10.00">conv1d_10.bias</text>
<text text-anchor="middle" x="1030" y="-893.25" font-family="monospace" font-size="10.00"> (32)</text>
</g>
<!-- 140230012857920&#45;&gt;140230010414720 -->
<g id="edge59" class="edge">
<title>140230012857920&#45;&gt;140230010414720</title>
<path fill="none" stroke="black" d="M1028.61,-884.1C1028.02,-876.69 1027.34,-868.01 1026.72,-860.21"/>
<polygon fill="black" stroke="black" points="1030.23,-860.2 1025.96,-850.5 1023.25,-860.75 1030.23,-860.2"/>
</g>
<!-- 140230010411072 -->
<g id="node59" class="node">
<title>140230010411072</title>
<polygon fill="lightgrey" stroke="black" points="665,-346.88 589,-346.88 589,-324.62 665,-324.62 665,-346.88"/>
<text text-anchor="middle" x="627" y="-333.38" font-family="monospace" font-size="10.00">TBackward0</text>
</g>
<!-- 140230010411072&#45;&gt;140230010412032 -->
<g id="edge60" class="edge">
<title>140230010411072&#45;&gt;140230010412032</title>
<path fill="none" stroke="black" d="M615.05,-324.35C602.25,-313.21 581.7,-295.32 566.35,-281.96"/>
<polygon fill="black" stroke="black" points="568.98,-279.61 559.14,-275.69 564.39,-284.89 568.98,-279.61"/>
</g>
<!-- 140230010414144 -->
<g id="node60" class="node">
<title>140230010414144</title>
<polygon fill="lightgrey" stroke="black" points="914,-419.38 814,-419.38 814,-397.12 914,-397.12 914,-419.38"/>
<text text-anchor="middle" x="864" y="-405.88" font-family="monospace" font-size="10.00">AccumulateGrad</text>
</g>
<!-- 140230010414144&#45;&gt;140230010411072 -->
<g id="edge61" class="edge">
<title>140230010414144&#45;&gt;140230010411072</title>
<path fill="none" stroke="black" d="M822.58,-396.65C783.9,-386.51 724.69,-370.38 674,-354 671.15,-353.08 668.22,-352.09 665.28,-351.08"/>
<polygon fill="black" stroke="black" points="666.73,-347.88 656.14,-347.84 664.39,-354.48 666.73,-347.88"/>
</g>
<!-- 140230012923536 -->
<g id="node61" class="node">
<title>140230012923536</title>
<polygon fill="lightblue" stroke="black" points="923,-499 841,-499 841,-462.5 923,-462.5 923,-499"/>
<text text-anchor="middle" x="882" y="-485.5" font-family="monospace" font-size="10.00">fc1.weight</text>
<text text-anchor="middle" x="882" y="-471.25" font-family="monospace" font-size="10.00"> (10, 2752)</text>
</g>
<!-- 140230012923536&#45;&gt;140230010414144 -->
<g id="edge62" class="edge">
<title>140230012923536&#45;&gt;140230010414144</title>
<path fill="none" stroke="black" d="M877.55,-462.32C875.1,-452.71 872.03,-440.7 869.43,-430.53"/>
<polygon fill="black" stroke="black" points="872.91,-429.99 867.04,-421.17 866.13,-431.73 872.91,-429.99"/>
</g>
<!-- 140230010412656 -->
<g id="node62" class="node">
<title>140230010412656</title>
<polygon fill="lightgrey" stroke="black" points="717,-209 641,-209 641,-186.75 717,-186.75 717,-209"/>
<text text-anchor="middle" x="679" y="-195.5" font-family="monospace" font-size="10.00">TBackward0</text>
</g>
<!-- 140230010412656&#45;&gt;140230013691040 -->
<g id="edge63" class="edge">
<title>140230010412656&#45;&gt;140230013691040</title>
<path fill="none" stroke="black" d="M655.49,-186.29C636.37,-177.69 609.15,-165.44 587.71,-155.79"/>
<polygon fill="black" stroke="black" points="589.34,-152.69 578.79,-151.78 586.47,-159.07 589.34,-152.69"/>
</g>
<!-- 140230010414336 -->
<g id="node63" class="node">
<title>140230010414336</title>
<polygon fill="lightgrey" stroke="black" points="752,-274.38 652,-274.38 652,-252.12 752,-252.12 752,-274.38"/>
<text text-anchor="middle" x="702" y="-260.88" font-family="monospace" font-size="10.00">AccumulateGrad</text>
</g>
<!-- 140230010414336&#45;&gt;140230010412656 -->
<g id="edge64" class="edge">
<title>140230010414336&#45;&gt;140230010412656</title>
<path fill="none" stroke="black" d="M698.2,-251.78C695.05,-243.11 690.48,-230.51 686.59,-219.78"/>
<polygon fill="black" stroke="black" points="689.95,-218.77 683.24,-210.57 683.37,-221.16 689.95,-218.77"/>
</g>
<!-- 140230012850960 -->
<g id="node64" class="node">
<title>140230012850960</title>
<polygon fill="lightblue" stroke="black" points="759,-354 683,-354 683,-317.5 759,-317.5 759,-354"/>
<text text-anchor="middle" x="721" y="-340.5" font-family="monospace" font-size="10.00">fc2.weight</text>
<text text-anchor="middle" x="721" y="-326.25" font-family="monospace" font-size="10.00"> (1, 10)</text>
</g>
<!-- 140230012850960&#45;&gt;140230010414336 -->
<g id="edge65" class="edge">
<title>140230012850960&#45;&gt;140230010414336</title>
<path fill="none" stroke="black" d="M716.3,-317.32C713.71,-307.71 710.48,-295.7 707.74,-285.53"/>
<polygon fill="black" stroke="black" points="711.19,-284.91 705.21,-276.17 704.43,-286.73 711.19,-284.91"/>
</g>
</g>
</svg>
